<?xml version="1.0" ?>
<svg xmlns="http://www.w3.org/2000/svg" fill="none" viewBox="0 0 14 14">
    <path
        fill="currentColor"
        fill-rule="evenodd"
        d="M7.5188 0.51639C7.6562 0.516788 7.76709 0.628485 7.76709 0.765889V2.97184C7.76709 4.47168 8.98855 5.4667 10.3564 5.53999C11.0456 5.57692 11.712 5.72183 12.2415 6.08761C12.6938 6.4001 13.1014 6.91179 13.3145 7.79854C13.3192 7.8181 13.3214 7.8384 13.3212 7.85852C13.3073 8.97513 13.2659 10.0685 13.1992 11.1313C13.1229 12.3466 12.1579 13.3128 10.945 13.3962C9.8007 13.4749 8.69466 13.5161 7.32642 13.5161C5.95817 13.5161 4.85213 13.4749 3.70782 13.3962C2.4949 13.3128 1.5299 12.3466 1.45362 11.1313C1.37022 9.80253 1.32642 8.42611 1.32642 7.01611C1.32642 5.60611 1.37022 4.22969 1.45362 2.90095C1.5299 1.68564 2.4949 0.719437 3.70782 0.636044C4.85213 0.557368 5.95817 0.516113 7.32642 0.516113L7.5188 0.51639ZM13.3051 5.3204C13.3053 5.32687 13.2977 5.33041 13.2928 5.32612C13.1839 5.22964 13.0701 5.14077 12.9519 5.05914C12.1515 4.50622 11.2201 4.33447 10.4232 4.29178C9.58508 4.24687 9.01709 3.68114 9.01709 2.97184V0.876767C9.01709 0.719544 9.16107 0.600732 9.31038 0.649983C9.56006 0.732339 9.7967 0.856206 10.009 1.02006C11.2051 1.94316 11.9377 2.72301 12.8414 3.95414C13.1341 4.35287 13.2928 4.83108 13.3051 5.3204ZM4.29468 11.5711V9.3851L4.52304 9.77657C4.68621 10.0563 4.98567 10.2283 5.30951 10.2283C5.63334 10.2283 5.93281 10.0563 6.09598 9.77657L6.32434 9.38509V11.5711C6.32434 11.9163 6.60416 12.1961 6.94934 12.1961C7.29452 12.1961 7.57434 11.9163 7.57434 11.5711V7.84381C7.57434 7.38359 7.20125 7.0105 6.74103 7.0105C6.44464 7.0105 6.17056 7.16792 6.02122 7.42393L5.30951 8.64401L4.59779 7.42393C4.44846 7.16792 4.17438 7.0105 3.87799 7.0105C3.41777 7.0105 3.04468 7.38358 3.04468 7.84381V11.5711C3.04468 11.9163 3.3245 12.1961 3.66968 12.1961C4.01486 12.1961 4.29468 11.9163 4.29468 11.5711ZM10.7522 9.86145L10.7522 7.63553C10.7522 7.29035 10.4724 7.01053 10.1272 7.01053C9.78202 7.01053 9.5022 7.29035 9.5022 7.63553L9.5022 9.86145H9.05835C8.81678 9.86145 8.59684 10.0007 8.49347 10.219C8.39009 10.4373 8.4218 10.6957 8.57489 10.8826C8.9777 11.3742 9.24146 11.6572 9.73327 12.0565C9.96282 12.2428 10.2915 12.2428 10.5211 12.0565C11.0129 11.6572 11.2766 11.3742 11.6794 10.8826C11.8325 10.6957 11.8642 10.4373 11.7609 10.219C11.6575 10.0007 11.4376 9.86145 11.196 9.86145H10.7522Z"
        clip-rule="evenodd"
    />
</svg>
