<?xml version="1.0"?>
<svg xmlns="http://www.w3.org/2000/svg" fill="none" viewBox="0 0 14 14">
    <path fill="currentColor" fill-rule="evenodd" d="M5.18345 0.749936C5.52332 0.741851 5.85595 0.849465 6.12675 1.05527C6.39945 1.26253 6.59301 1.55687 6.67524 1.88936L6.67544 1.89015L6.89039 2.74994H8.875V4.87451H8C7.65482 4.87451 7.375 5.15433 7.375 5.49951C7.375 5.84469 7.65482 6.12451 8 6.12451H8.875V7.87451H8C7.65482 7.87451 7.375 8.15433 7.375 8.49951C7.375 8.84469 7.65482 9.12451 8 9.12451H8.875V10C8.875 10.3452 9.15482 10.625 9.5 10.625C9.84518 10.625 10.125 10.3452 10.125 10V9.12451H11C11.3452 9.12451 11.625 8.84469 11.625 8.49951C11.625 8.15433 11.3452 7.87451 11 7.87451H10.125V6.12451H11C11.3452 6.12451 11.625 5.84469 11.625 5.49951C11.625 5.15433 11.3452 4.87451 11 4.87451H10.125V2.74994H12.5C12.8978 2.74994 13.2794 2.90797 13.5607 3.18928C13.842 3.47058 14 3.85211 14 4.24994V11.7499C14 12.1478 13.842 12.5293 13.5607 12.8106C13.2794 13.0919 12.8978 13.2499 12.5 13.2499H1.5C1.10217 13.2499 0.720644 13.0919 0.43934 12.8106C0.158035 12.5293 0 12.1478 0 11.7499V2.24994C0 1.85211 0.158035 1.47058 0.43934 1.18928C0.720644 0.907971 1.10218 0.749936 1.5 0.749936H5.18345Z" clip-rule="evenodd"></path>
</svg>
